<svg xmlns="http://www.w3.org/2000/svg" viewBox="0 0 64 64"><defs><linearGradient id="bg" x2=".8" y2="1"><stop stop-color="#30435f"/><stop offset=".5" stop-color="#18273d"/><stop offset="1" stop-color="#0d1729"/></linearGradient><radialGradient id="halo"><stop stop-color="#e9b957" stop-opacity=".16"/><stop offset="1" stop-color="#e9b957" stop-opacity="0"/></radialGradient><linearGradient id="metal" x1="0" y1="0" x2=".7" y2="1"><stop stop-color="#fff5df"/><stop offset=".28" stop-color="#e9b957"/><stop offset=".68" stop-color="#e9b957"/><stop offset="1" stop-color="#bb9360"/></linearGradient><filter id="shadow" x="-30%" y="-30%" width="160%" height="180%"><feDropShadow dx="0" dy="1.7" stdDeviation="1.4" flood-color="#030916" flood-opacity=".7"/></filter></defs><rect width="64" height="64" rx="0" fill="url(#bg)"/><circle cx="27" cy="22" r="34" fill="url(#halo)"/><path d="M4 11a7 7 0 0 1 7-7h42a7 7 0 0 1 7 7" fill="none" stroke="#b8cce7" stroke-opacity=".2" stroke-width=".6"/><g fill="none" stroke="url(#metal)" stroke-width="3.5" stroke-linecap="round" stroke-linejoin="round" filter="url(#shadow)"><circle cx="32" cy="32" r="21" stroke-width="1.5" opacity=".6"/><path d="m32 12 6 14 14 6-14 6-6 14-6-14-14-6 14-6Z" fill="url(#metal)" stroke="none"/><path d="m32 20 0 12 12 0-12 0 0 12 0-12-12 0" stroke="#1a293e" stroke-width="1.5"/><circle cx="32" cy="32" r="3" fill="#152238" stroke="none"/></g></svg>
